<?xml version="1.0" encoding="UTF-8"?>
<svg width="15px" height="13px" viewBox="0 0 15 13" version="1.1" xmlns="http://www.w3.org/2000/svg" xmlns:xlink="http://www.w3.org/1999/xlink">
    <title>arrow-right</title>
    <defs>
        <path d="M10.5235405,4.19020713 C10.8327055,3.88104207 11.3339611,3.88104207 11.6431262,4.19020713 L11.6431262,4.19020713 L16.3931262,8.94020713 C16.4427174,8.98979834 16.4857599,9.04593823 16.5208453,9.10721835 C16.5323145,9.12713588 16.5428074,9.14751284 16.5523584,9.16821733 C16.5576667,9.17975523 16.562776,9.1915513 16.5676025,9.20349199 C16.5759029,9.22409939 16.5832651,9.24484955 16.5897366,9.26581554 C16.5941694,9.27992616 16.5983488,9.29495066 16.6020893,9.31014782 C16.6066693,9.32913384 16.6104744,9.34747098 16.613625,9.36589819 C16.621079,9.40894281 16.625,9.45401351 16.625,9.5 L16.620423,9.41473761 C16.6225051,9.43407004 16.6238768,9.45346448 16.6245382,9.47287862 L16.625,9.5 C16.625,9.50910886 16.6248462,9.5181818 16.6245409,9.52721634 C16.6238882,9.54620079 16.6225522,9.56526118 16.6205301,9.58426238 C16.618726,9.60175564 16.6162514,9.61943557 16.6132032,9.63691848 C16.6102408,9.65348462 16.6068524,9.66981624 16.6029447,9.68604836 C16.5987958,9.7035827 16.5939478,9.72103121 16.5885288,9.73822638 C16.5822465,9.75804021 16.5751936,9.77771834 16.5673381,9.79714778 C16.5629856,9.80789292 16.5584986,9.81830176 16.5537976,9.82859234 C16.5441371,9.84986399 16.5332604,9.87115038 16.5213586,9.89201096 C16.5030316,9.92399006 16.4825286,9.95468094 16.4600463,9.9837639 L16.3931262,10.0597929 L11.6431262,14.8097929 C11.3339611,15.1189579 10.8327055,15.1189579 10.5235405,14.8097929 C10.2143754,14.5006278 10.2143754,13.9993722 10.5235405,13.6902071 L10.5235405,13.6902071 L13.921,10.2913333 L3.16666667,10.2916667 C2.76587669,10.2916667 2.43464843,9.99383757 2.38222698,9.60742448 L2.375,9.5 C2.375,9.06277457 2.72944124,8.70833333 3.16666667,8.70833333 L3.16666667,8.70833333 L13.921,8.70733333 L10.5235405,5.30979287 C10.2424813,5.02873372 10.2169305,4.58892205 10.446888,4.27899881 Z" id="path-1"></path>
    </defs>
    <g id="页面-1" stroke="none" stroke-width="1" fill="none" fill-rule="evenodd">
        <g id="Home-1440-Copy" transform="translate(-469.000000, -4173.000000)">
            <g id="Footer" transform="translate(1.000000, 3870.000000)">
                <g id="Full-Name" transform="translate(151.000000, 285.000000)">
                    <g id="arrow-right" transform="translate(315.000000, 15.000000)">
                        <mask id="mask-2" fill="white">
                            <use xlink:href="#path-1"></use>
                        </mask>
                        <use id="Combined-Shape" fill="#000000" fill-rule="nonzero" xlink:href="#path-1"></use>
                        <g id="Group" mask="url(#mask-2)" fill="#000000">
                            <g id="COLOR/-black">
                                <rect id="Rectangle" x="0" y="0" width="19" height="19"></rect>
                            </g>
                        </g>
                    </g>
                </g>
            </g>
        </g>
    </g>
</svg>