<?xml version="1.0" encoding="UTF-8"?>
<svg width="24px" height="19px" viewBox="0 0 24 19" version="1.1" xmlns="http://www.w3.org/2000/svg" xmlns:xlink="http://www.w3.org/1999/xlink">
    <title>Group 5</title>
    <defs>
        <path d="M12.2928932,4.9818738 C12.6834175,4.67270873 13.3165825,4.67270873 13.7071068,4.9818738 L13.7071068,4.9818738 L18.7071068,8.94020713 C19.0976311,9.2493722 19.0976311,9.7506278 18.7071068,10.0597929 L18.7071068,10.0597929 L13.7071068,14.0181262 C13.3165825,14.3272913 12.6834175,14.3272913 12.2928932,14.0181262 C11.9023689,13.7089611 11.9023689,13.2077055 12.2928932,12.8985405 L12.2928932,12.8985405 L16.5857864,9.5 L12.2928932,6.10145954 C11.9023689,5.79229447 11.9023689,5.29103886 12.2928932,4.9818738 Z M5.29289322,4.9818738 C5.68341751,4.67270873 6.31658249,4.67270873 6.70710678,4.9818738 L6.70710678,4.9818738 L11.7071068,8.94020713 C12.0976311,9.2493722 12.0976311,9.7506278 11.7071068,10.0597929 L11.7071068,10.0597929 L6.70710678,14.0181262 C6.31658249,14.3272913 5.68341751,14.3272913 5.29289322,14.0181262 C4.90236893,13.7089611 4.90236893,13.2077055 5.29289322,12.8985405 L5.29289322,12.8985405 L9.58578644,9.5 L5.29289322,6.10145954 C4.90236893,5.79229447 4.90236893,5.29103886 5.29289322,4.9818738 Z" id="path-1"></path>
    </defs>
    <g id="页面-1" stroke="none" stroke-width="1" fill="none" fill-rule="evenodd">
        <g id="Find-FDW-1440" transform="translate(-1144.000000, -1567.000000)">
            <g id="Screen-2.0" transform="translate(0.000000, 827.000000)">
                <g id="Group-4" transform="translate(248.000000, 167.000000)">
                    <g id="Next" transform="translate(798.000000, 555.000000)">
                        <g id="Group-5" transform="translate(98.000000, 18.000000)">
                            <g id="chevrons-right">
                                <mask id="mask-2" fill="white">
                                    <use xlink:href="#path-1"></use>
                                </mask>
                                <use id="Combined-Shape" fill="#F1F1F1" fill-rule="nonzero" xlink:href="#path-1"></use>
                                <g id="Group" mask="url(#mask-2)" fill="#F1F1F1">
                                    <g id="COLOR/-black">
                                        <rect id="Rectangle" x="0" y="0" width="24" height="19"></rect>
                                    </g>
                                </g>
                            </g>
                            <rect id="Rectangle" stroke="#979797" fill="#D8D8D8" opacity="0" x="0.5" y="0.5" width="23" height="18"></rect>
                        </g>
                    </g>
                </g>
            </g>
        </g>
    </g>
</svg>