<?xml version="1.0" encoding="UTF-8"?>
<svg width="80px" height="80px" viewBox="0 0 80 80" version="1.1" xmlns="http://www.w3.org/2000/svg" xmlns:xlink="http://www.w3.org/1999/xlink">
    <title>crosshair</title>
    <defs>
        <path d="M43,3.58333333 C64.7692239,3.58333333 82.4166667,21.2307761 82.4166667,43 C82.4166667,64.7692239 64.7692239,82.4166667 43,82.4166667 C21.2307761,82.4166667 3.58333333,64.7692239 3.58333333,43 C3.58333333,21.2307761 21.2307761,3.58333333 43,3.58333333 Z M46.5842184,10.946926 L46.5833333,21.5 C46.5833333,23.4790204 44.9790204,25.0833333 43,25.0833333 C41.0209796,25.0833333 39.4166667,23.4790204 39.4166667,21.5 L39.4166667,21.5 L39.4167797,10.9468156 C24.468396,12.5992224 12.5992224,24.468396 10.9468156,39.4167797 L21.5,39.4166667 C23.4790204,39.4166667 25.0833333,41.0209796 25.0833333,43 C25.0833333,44.9790204 23.4790204,46.5833333 21.5,46.5833333 L21.5,46.5833333 L10.946926,46.5842184 C12.5997507,61.5321324 24.4687287,73.4008144 39.4167797,75.0531844 L39.4166667,64.5 C39.4166667,62.5209796 41.0209796,60.9166667 43,60.9166667 C44.9790204,60.9166667 46.5833333,62.5209796 46.5833333,64.5 L46.5833333,64.5 L46.5842184,75.053074 C61.5317997,73.400286 73.400286,61.5317997 75.053074,46.5842184 L64.5,46.5833333 C62.5209796,46.5833333 60.9166667,44.9790204 60.9166667,43 C60.9166667,41.0209796 62.5209796,39.4166667 64.5,39.4166667 L64.5,39.4166667 L75.0531844,39.4167797 C73.4008144,24.4687287 61.5321324,12.5997507 46.5842184,10.946926 Z" id="path-1"></path>
    </defs>
    <g id="é¡µé¢-1" stroke="none" stroke-width="1" fill="none" fill-rule="evenodd">
        <g id="User-login-interface" transform="translate(-318.000000, -401.000000)">
            <g id="Group-3" transform="translate(0.000000, 85.000000)">
                <g id="Group" transform="translate(289.000000, 281.000000)">
                    <g transform="translate(26.000000, 32.000000)" id="crosshair">
                        <mask id="mask-2" fill="white">
                            <use xlink:href="#path-1"></use>
                        </mask>
                        <use id="Combined-Shape" fill="#F1F1F1" fill-rule="nonzero" xlink:href="#path-1"></use>
                        <g id="Group" mask="url(#mask-2)" fill="#F1F1F1">
                            <g id="ðŸŽ¨Color">
                                <rect id="Rectangle" x="0" y="0" width="86" height="86"></rect>
                            </g>
                        </g>
                    </g>
                </g>
            </g>
        </g>
    </g>
</svg>