<?xml version="1.0" encoding="UTF-8"?>
<svg width="224px" height="239px" viewBox="0 0 224 239" version="1.1" xmlns="http://www.w3.org/2000/svg" xmlns:xlink="http://www.w3.org/1999/xlink">
    <title>check-circle</title>
    <defs>
        <path d="M28.4701835,52.3788402 C62.6274469,12.4148864 119.002363,-0.322280689 167.023295,21.0745962 C172.467394,23.500345 174.91425,29.8801169 172.488502,35.3242158 C170.062753,40.7683147 163.682981,43.2151709 158.238882,40.7894222 C118.949029,23.2828866 72.8240971,33.7042051 44.8772452,66.4019854 C16.9303933,99.0997658 13.8190248,146.284854 37.2304084,182.369179 C60.6417919,218.453504 104.998948,234.84118 146.247367,222.64531 C187.495787,210.449441 215.809413,172.575284 215.834005,129.567843 L215.834005,129.567843 L215.834005,119.531593 C215.834005,113.57152 220.665599,108.739926 226.625672,108.739926 C232.585745,108.739926 237.417339,113.57152 237.417339,119.531593 L237.417339,119.531593 L237.417339,129.574013 C237.387278,182.146205 202.781735,228.436841 152.366999,243.342904 C101.952264,258.248967 47.7379628,238.219585 19.1240496,194.116521 C-9.48986368,150.013458 -5.68707995,92.3427939 28.4701835,52.3788402 Z M229.786478,24.8119819 C234.000886,20.5975739 240.833791,20.5975739 245.048199,24.8119819 C249.262607,29.0263899 249.262607,35.8592953 245.048199,40.0737033 L245.048199,40.0737033 L126.339866,158.782037 C122.125458,162.996445 115.292553,162.996445 111.078145,158.782037 L111.078145,158.782037 L78.7031446,126.407037 C74.4887367,122.192629 74.4887367,115.359723 78.7031446,111.145315 C82.9175526,106.930907 89.750458,106.930907 93.964866,111.145315 L93.964866,111.145315 L118.709005,135.889455 Z" id="path-1"></path>
    </defs>
    <g id="é¡µé¢-1" stroke="none" stroke-width="1" fill="none" fill-rule="evenodd">
        <g id="Home-1440-Copy" transform="translate(-1140.000000, -2988.000000)">
            <g id="Group-3" transform="translate(1.000000, 2309.000000)">
                <g id="Submit" transform="translate(958.000000, 669.000000)">
                    <g id="check-circle" transform="translate(181.000000, 0.000000)">
                        <mask id="mask-2" fill="white">
                            <use xlink:href="#path-1"></use>
                        </mask>
                        <use id="Combined-Shape" fill="#F1F1F1" fill-rule="nonzero" xlink:href="#path-1"></use>
                        <g id="Group" mask="url(#mask-2)" fill="#F1F1F1">
                            <g id="ðŸŽ¨Color">
                                <rect id="Rectangle" x="0" y="0" width="259" height="259"></rect>
                            </g>
                        </g>
                    </g>
                </g>
            </g>
        </g>
    </g>
</svg>