<?xml version="1.0" encoding="UTF-8"?>
<svg width="18px" height="18px" viewBox="0 0 18 18" version="1.1" xmlns="http://www.w3.org/2000/svg" xmlns:xlink="http://www.w3.org/1999/xlink">
    <title>star</title>
    <defs>
        <path d="M7.76450492,6.88957727 C7.64928596,7.1229982 7.426681,7.28486179 7.16910893,7.3225098 L3.28502083,7.89022746 L6.09490006,10.6270498 C6.28163344,10.8089281 6.36686635,11.0710736 6.32280175,11.3279926 L5.65983806,15.1934081 L9.13237934,13.3672335 C9.36305744,13.2459222 9.63866575,13.2459222 9.86934386,13.3672335 L13.3418851,15.1934081 L12.6789214,11.3279926 C12.6348568,11.0710736 12.7200898,10.8089281 12.9068231,10.6270498 L15.7167024,7.89022746 L11.8326143,7.3225098 C11.5750422,7.28486179 11.3524372,7.1229982 11.2372183,6.88957727 L9.5008616,3.37190968 L7.76450492,6.88957727 Z M6.52873802,5.81595233 L8.79096828,1.23292273 C9.08137962,0.644581311 9.92034357,0.644581311 10.2107549,1.23292273 L12.4729852,5.81595233 L17.5320256,6.55540686 C18.1811247,6.65028242 18.4398283,7.44815676 17.9699001,7.90586684 L14.309858,11.4707478 L15.1736351,16.5070074 C15.2845623,17.1537691 14.6056694,17.6469482 14.0248793,17.3415165 L9.5008616,14.962381 L4.97684386,17.3415165 C4.39605378,17.6469482 3.71716094,17.1537691 3.82808811,16.5070074 L4.69186518,11.4707478 L1.03182313,7.90586684 C0.561894921,7.44815676 0.820598479,6.65028242 1.4696976,6.55540686 L6.52873802,5.81595233 Z" id="path-1"></path>
    </defs>
    <g id="é¡µé¢-1" stroke="none" stroke-width="1" fill="none" fill-rule="evenodd">
        <g id="Home-1440-Copy" transform="translate(-984.000000, -3688.000000)">
            <g id="Group-3" transform="translate(1.000000, 2309.000000)">
                <g id="star" transform="translate(958.000000, 1077.000000)">
                    <g id="star" transform="translate(24.500000, 302.000000)">
                        <mask id="mask-2" fill="white">
                            <use xlink:href="#path-1"></use>
                        </mask>
                        <use id="Shape" fill-opacity="0.5" fill="#2D2D2D" fill-rule="nonzero" xlink:href="#path-1"></use>
                        <g id="Group" mask="url(#mask-2)" fill="#2D2D2D" fill-opacity="0.5">
                            <g id="COLOR/-black">
                                <rect id="Rectangle" x="0" y="0" width="19" height="19"></rect>
                            </g>
                        </g>
                    </g>
                </g>
            </g>
        </g>
    </g>
</svg>