<?xml version="1.0" encoding="UTF-8"?>
<svg width="24px" height="24px" viewBox="0 0 24 24" version="1.1" xmlns="http://www.w3.org/2000/svg" xmlns:xlink="http://www.w3.org/1999/xlink">
    <title>Group 6</title>
    <defs>
        <path d="M10.2928932,6.29289322 C10.6834175,5.90236893 11.3165825,5.90236893 11.7071068,6.29289322 C12.0976311,6.68341751 12.0976311,7.31658249 11.7071068,7.70710678 L11.7071068,7.70710678 L7.41421356,12 L11.7071068,16.2928932 C12.0976311,16.6834175 12.0976311,17.3165825 11.7071068,17.7071068 C11.3165825,18.0976311 10.6834175,18.0976311 10.2928932,17.7071068 L10.2928932,17.7071068 L5.29289322,12.7071068 C4.90236893,12.3165825 4.90236893,11.6834175 5.29289322,11.2928932 L5.29289322,11.2928932 Z M17.2928932,6.29289322 C17.6834175,5.90236893 18.3165825,5.90236893 18.7071068,6.29289322 C19.0976311,6.68341751 19.0976311,7.31658249 18.7071068,7.70710678 L18.7071068,7.70710678 L14.4142136,12 L18.7071068,16.2928932 C19.0976311,16.6834175 19.0976311,17.3165825 18.7071068,17.7071068 C18.3165825,18.0976311 17.6834175,18.0976311 17.2928932,17.7071068 L17.2928932,17.7071068 L12.2928932,12.7071068 C11.9023689,12.3165825 11.9023689,11.6834175 12.2928932,11.2928932 L12.2928932,11.2928932 Z" id="path-1"></path>
    </defs>
    <g id="页面-1" stroke="none" stroke-width="1" fill="none" fill-rule="evenodd">
        <g id="Find-FDW-1440" transform="translate(-385.000000, -2349.000000)">
            <g id="Screen-2.1" transform="translate(0.000000, 1653.000000)">
                <g id="Group-4" transform="translate(363.000000, 198.000000)">
                    <g id="Previous" transform="translate(0.000000, 483.000000)">
                        <g id="Group-6" transform="translate(22.000000, 15.000000)">
                            <g id="chevrons-left">
                                <mask id="mask-2" fill="white">
                                    <use xlink:href="#path-1"></use>
                                </mask>
                                <use id="Combined-Shape" fill="#ED721D" fill-rule="nonzero" xlink:href="#path-1"></use>
                                <g id="Group" mask="url(#mask-2)" fill="#ED721D">
                                    <g id="COLOR/-black">
                                        <rect id="Rectangle" x="0" y="0" width="24" height="24"></rect>
                                    </g>
                                </g>
                            </g>
                            <rect id="Rectangle" stroke="#979797" fill="#D8D8D8" opacity="0" x="0.5" y="0.5" width="23" height="23"></rect>
                        </g>
                    </g>
                </g>
            </g>
        </g>
    </g>
</svg>