<?xml version="1.0" encoding="UTF-8"?>
<svg width="19px" height="19px" viewBox="0 0 19 19" version="1.1" xmlns="http://www.w3.org/2000/svg" xmlns:xlink="http://www.w3.org/1999/xlink">
    <title>check-circle</title>
    <defs>
        <path d="M2.08854628,3.84246318 C4.59429147,0.910744561 8.7299031,-0.0236422127 12.2526742,1.54601285 C12.6520482,1.72396353 12.8315473,2.19197769 12.6535966,2.59135174 C12.475646,2.99072579 12.0076318,3.1702249 11.6082578,2.99227422 C8.72599052,1.70801098 5.34230828,2.47250925 3.29215312,4.87118812 C1.24199796,7.26986699 1.01375085,10.7313214 2.73118826,13.378434 C4.44862566,16.0255466 7.7026255,17.2277314 10.7285714,16.3330537 C13.7545172,15.438376 15.8315786,12.6599629 15.8333826,9.50497687 L15.8333826,9.50497687 L15.8333826,8.76872687 C15.8333826,8.33150144 16.1878239,7.9770602 16.6250493,7.9770602 C17.0622747,7.9770602 17.416716,8.33150144 17.416716,8.76872687 L17.416716,8.76872687 L17.416716,9.50542952 C17.4145107,13.3620768 14.8758802,16.757915 11.1775019,17.8514099 C7.47912363,18.9449049 3.50201271,17.475568 1.40292255,14.2402081 C-0.696167606,11.0048482 -0.417198915,6.77418179 2.08854628,3.84246318 Z M16.8569231,1.820184 C17.1660882,1.51101894 17.6673438,1.51101894 17.9765088,1.820184 C18.2856739,2.12934906 18.2856739,2.63060467 17.9765088,2.93976974 L17.9765088,2.93976974 L9.2681755,11.6481031 C8.95901043,11.9572681 8.45775483,11.9572681 8.14858976,11.6481031 L8.14858976,11.6481031 L5.77358976,9.27310307 C5.4644247,8.96393801 5.4644247,8.4626824 5.77358976,8.15351733 C6.08275483,7.84435227 6.58401043,7.84435227 6.8931755,8.15351733 L6.8931755,8.15351733 L8.70838263,9.96872446 Z" id="path-1"></path>
    </defs>
    <g id="页面-1" stroke="none" stroke-width="1" fill="none" fill-rule="evenodd">
        <g id="Home-1440-Copy" transform="translate(-983.000000, -3285.000000)">
            <g id="Group-3" transform="translate(1.000000, 2309.000000)">
                <g id="Submit" transform="translate(958.000000, 669.000000)">
                    <g id="check-circle" transform="translate(24.500000, 307.000000)">
                        <mask id="mask-2" fill="white">
                            <use xlink:href="#path-1"></use>
                        </mask>
                        <use id="Combined-Shape" fill-opacity="0.5" fill="#2D2D2D" fill-rule="nonzero" xlink:href="#path-1"></use>
                        <g id="Group" mask="url(#mask-2)" fill="#2D2D2D" fill-opacity="0.5">
                            <g id="COLOR/-black">
                                <rect id="Rectangle" x="0" y="0" width="19" height="19"></rect>
                            </g>
                        </g>
                    </g>
                </g>
            </g>
        </g>
    </g>
</svg>