<?xml version="1.0" encoding="UTF-8"?>
<svg width="16px" height="17px" viewBox="0 0 16 17" version="1.1" xmlns="http://www.w3.org/2000/svg" xmlns:xlink="http://www.w3.org/1999/xlink">
    <title>grid</title>
    <defs>
        <path d="M3.16666667,3.16666667 L3.16666667,7.125 L7.125,7.125 L7.125,3.16666667 L3.16666667,3.16666667 Z M16.625,10.2916667 C17.0622254,10.2916667 17.4166667,10.6461079 17.4166667,11.0833333 L17.4166667,16.625 C17.4166667,17.0622254 17.0622254,17.4166667 16.625,17.4166667 L11.0833333,17.4166667 C10.6461079,17.4166667 10.2916667,17.0622254 10.2916667,16.625 L10.2916667,11.0833333 C10.2916667,10.6461079 10.6461079,10.2916667 11.0833333,10.2916667 L16.625,10.2916667 Z M7.91666667,10.2916667 C8.35389209,10.2916667 8.70833333,10.6461079 8.70833333,11.0833333 L8.70833333,16.625 C8.70833333,17.0622254 8.35389209,17.4166667 7.91666667,17.4166667 L2.375,17.4166667 C1.93777457,17.4166667 1.58333333,17.0622254 1.58333333,16.625 L1.58333333,11.0833333 C1.58333333,10.6461079 1.93777457,10.2916667 2.375,10.2916667 L7.91666667,10.2916667 Z M15.8333333,11.875 L11.875,11.875 L11.875,15.8333333 L15.8333333,15.8333333 L15.8333333,11.875 Z M7.125,11.875 L3.16666667,11.875 L3.16666667,15.8333333 L7.125,15.8333333 L7.125,11.875 Z M7.91666667,1.58333333 C8.35389209,1.58333333 8.70833333,1.93777457 8.70833333,2.375 L8.70833333,7.91666667 C8.70833333,8.35389209 8.35389209,8.70833333 7.91666667,8.70833333 L2.375,8.70833333 C1.93777457,8.70833333 1.58333333,8.35389209 1.58333333,7.91666667 L1.58333333,2.375 C1.58333333,1.93777457 1.93777457,1.58333333 2.375,1.58333333 L7.91666667,1.58333333 Z M16.625,1.58333333 C17.0622254,1.58333333 17.4166667,1.93777457 17.4166667,2.375 L17.4166667,7.91666667 C17.4166667,8.35389209 17.0622254,8.70833333 16.625,8.70833333 L11.0833333,8.70833333 C10.6461079,8.70833333 10.2916667,8.35389209 10.2916667,7.91666667 L10.2916667,2.375 C10.2916667,1.93777457 10.6461079,1.58333333 11.0833333,1.58333333 L16.625,1.58333333 Z M15.8333333,3.16666667 L11.875,3.16666667 L11.875,7.125 L15.8333333,7.125 L15.8333333,3.16666667 Z" id="path-1"></path>
    </defs>
    <g id="页面-1" stroke="none" stroke-width="1" fill="none" fill-rule="evenodd">
        <g id="Home-1440-Copy" transform="translate(-546.000000, -3689.000000)">
            <g id="Group-3" transform="translate(1.000000, 2309.000000)">
                <g id="grid" transform="translate(518.000000, 1077.000000)">
                    <g id="grid" transform="translate(25.500000, 302.000000)">
                        <mask id="mask-2" fill="white">
                            <use xlink:href="#path-1"></use>
                        </mask>
                        <use id="Combined-Shape" fill-opacity="0.5" fill="#2D2D2D" fill-rule="nonzero" xlink:href="#path-1"></use>
                        <g id="Group" mask="url(#mask-2)" fill="#2D2D2D" fill-opacity="0.5">
                            <g id="COLOR/-black">
                                <rect id="Rectangle" x="0" y="0" width="19" height="19"></rect>
                            </g>
                        </g>
                    </g>
                </g>
            </g>
        </g>
    </g>
</svg>