<?xml version="1.0" encoding="UTF-8"?>
<svg width="18px" height="14px" viewBox="0 0 18 14" version="1.1" xmlns="http://www.w3.org/2000/svg" xmlns:xlink="http://www.w3.org/1999/xlink">
    <title>arrow-right</title>
    <defs>
        <path d="M13.2928932,5.29289322 C13.6834175,4.90236893 14.3165825,4.90236893 14.7071068,5.29289322 L14.7071068,5.29289322 L20.7071068,11.2928932 C20.7355731,11.3213595 20.7623312,11.3515341 20.787214,11.3832499 C20.7927155,11.3901576 20.7982466,11.397397 20.8036654,11.4046934 C20.8215099,11.4288693 20.8382813,11.453725 20.8539326,11.4793398 C20.8613931,11.4913869 20.8685012,11.5036056 20.8753288,11.5159379 C20.8862061,11.5357061 20.8966234,11.5561086 20.9063462,11.5769009 C20.914321,11.5939015 20.9218036,11.6112044 20.9287745,11.628664 C20.9366843,11.6484208 20.9438775,11.6682023 20.9504533,11.6882636 C20.9552713,11.7031487 20.9599023,11.7185367 20.9641549,11.734007 C20.9701664,11.7555635 20.9753602,11.7772539 20.9798348,11.7992059 C20.9832978,11.8166247 20.9863719,11.834051 20.9889822,11.8515331 C20.9962388,11.8996379 21,11.9493797 21,12 L20.996384,11.9147758 C20.997855,11.9320769 20.9988772,11.949409 20.9994506,11.9667532 L21,12 C21,12.0111266 20.9998183,12.0222108 20.9994576,12.0332497 C20.9989053,12.0502664 20.9978436,12.0682655 20.9962979,12.0862308 C20.9944666,12.107886 20.9920328,12.1285247 20.9889807,12.1489612 C20.9863719,12.165949 20.9832978,12.1833753 20.9797599,12.2007258 C20.9753602,12.2227461 20.9701664,12.2444365 20.964279,12.2658396 C20.9599023,12.2814633 20.9552713,12.2968513 20.9502619,12.3121425 C20.9438775,12.3317977 20.9366843,12.3515792 20.928896,12.3710585 C20.9218036,12.3887956 20.914321,12.4060985 20.9063266,12.4232215 C20.8966234,12.4438914 20.8862061,12.4642939 20.8751242,12.484277 C20.8685012,12.4963944 20.8613931,12.5086131 20.8540045,12.5207088 C20.8382813,12.546275 20.8215099,12.5711307 20.8036865,12.5951593 C20.774687,12.6343256 20.7425008,12.6717127 20.7071068,12.7071068 L20.787214,12.6167501 C20.7849289,12.6196628 20.7826279,12.6225624 20.7803112,12.625449 L20.7071068,12.7071068 L14.7071068,18.7071068 C14.3165825,19.0976311 13.6834175,19.0976311 13.2928932,18.7071068 C12.9023689,18.3165825 12.9023689,17.6834175 13.2928932,17.2928932 L13.2928932,17.2928932 L17.585,12.999 L4,13 C3.48716416,13 3.06449284,12.6139598 3.00672773,12.1166211 L3,12 C3,11.4477153 3.44771525,11 4,11 L4,11 L17.585,10.999 L13.2928932,6.70710678 C12.9324093,6.34662282 12.9046797,5.77939176 13.2097046,5.38710056 Z" id="path-1"></path>
    </defs>
    <g id="é¡µé¢-1" stroke="none" stroke-width="1" fill="none" fill-rule="evenodd">
        <g id="Home-1440-Copy" transform="translate(-831.000000, -2134.000000)">
            <g id="Group-7" transform="translate(562.000000, 2101.000000)">
                <g id="Group-6" transform="translate(27.000000, 28.000000)">
                    <g id="arrow-right" transform="translate(239.000000, 0.000000)">
                        <mask id="mask-2" fill="white">
                            <use xlink:href="#path-1"></use>
                        </mask>
                        <use id="Combined-Shape" fill="#F1F1F1" fill-rule="nonzero" xlink:href="#path-1"></use>
                        <g id="Group" mask="url(#mask-2)" fill="#F1F1F1">
                            <g id="ðŸŽ¨Color">
                                <rect id="Rectangle" x="0" y="0" width="24" height="24"></rect>
                            </g>
                        </g>
                    </g>
                </g>
            </g>
        </g>
    </g>
</svg>