<?xml version="1.0" encoding="UTF-8"?>
<svg width="25px" height="25px" viewBox="0 0 25 25" version="1.1" xmlns="http://www.w3.org/2000/svg" xmlns:xlink="http://www.w3.org/1999/xlink">
    <title>Group 5</title>
    <defs>
        <path d="M12.2928932,6.29289322 C12.6834175,5.90236893 13.3165825,5.90236893 13.7071068,6.29289322 L13.7071068,6.29289322 L18.7071068,11.2928932 C19.0976311,11.6834175 19.0976311,12.3165825 18.7071068,12.7071068 L18.7071068,12.7071068 L13.7071068,17.7071068 C13.3165825,18.0976311 12.6834175,18.0976311 12.2928932,17.7071068 C11.9023689,17.3165825 11.9023689,16.6834175 12.2928932,16.2928932 L12.2928932,16.2928932 L16.5857864,12 L12.2928932,7.70710678 C11.9023689,7.31658249 11.9023689,6.68341751 12.2928932,6.29289322 Z M5.29289322,6.29289322 C5.68341751,5.90236893 6.31658249,5.90236893 6.70710678,6.29289322 L6.70710678,6.29289322 L11.7071068,11.2928932 C12.0976311,11.6834175 12.0976311,12.3165825 11.7071068,12.7071068 L11.7071068,12.7071068 L6.70710678,17.7071068 C6.31658249,18.0976311 5.68341751,18.0976311 5.29289322,17.7071068 C4.90236893,17.3165825 4.90236893,16.6834175 5.29289322,16.2928932 L5.29289322,16.2928932 L9.58578644,12 L5.29289322,7.70710678 C4.90236893,7.31658249 4.90236893,6.68341751 5.29289322,6.29289322 Z" id="path-1"></path>
    </defs>
    <g id="页面-1" stroke="none" stroke-width="1" fill="none" fill-rule="evenodd">
        <g id="Find-Employer-1440" transform="translate(-520.000000, -878.000000)">
            <g id="Screen-2.0" transform="translate(0.000000, 825.000000)">
                <g id="Tabs" transform="translate(0.000000, 2.000000)">
                    <g id="Group-3" transform="translate(194.000000, 25.000000)">
                        <g id="Group-5" transform="translate(326.000000, 26.000000)">
                            <g id="chevrons-right" transform="translate(0.500000, 0.500000)">
                                <mask id="mask-2" fill="white">
                                    <use xlink:href="#path-1"></use>
                                </mask>
                                <use id="Combined-Shape" fill="#2D2D2D" fill-rule="nonzero" xlink:href="#path-1"></use>
                                <g id="Group" mask="url(#mask-2)" fill="#2D2D2D">
                                    <g id="COLOR/-black">
                                        <rect id="Rectangle" x="0" y="0" width="24" height="24"></rect>
                                    </g>
                                </g>
                            </g>
                            <rect id="Rectangle" stroke="#979797" fill="#D8D8D8" opacity="0" x="0.5" y="0.5" width="24" height="24"></rect>
                        </g>
                    </g>
                </g>
            </g>
        </g>
    </g>
</svg>