<?xml version="1.0" encoding="UTF-8"?>
<svg width="204px" height="217px" viewBox="0 0 204 217" version="1.1" xmlns="http://www.w3.org/2000/svg" xmlns:xlink="http://www.w3.org/1999/xlink">
    <title>grid</title>
    <defs>
        <path d="M43.1666667,43.1666667 L43.1666667,97.125 L97.125,97.125 L97.125,43.1666667 L43.1666667,43.1666667 Z M226.625,140.291667 C232.585073,140.291667 237.416667,145.12326 237.416667,151.083333 L237.416667,226.625 C237.416667,232.585073 232.585073,237.416667 226.625,237.416667 L151.083333,237.416667 C145.12326,237.416667 140.291667,232.585073 140.291667,226.625 L140.291667,151.083333 C140.291667,145.12326 145.12326,140.291667 151.083333,140.291667 L226.625,140.291667 Z M107.916667,140.291667 C113.87674,140.291667 118.708333,145.12326 118.708333,151.083333 L118.708333,226.625 C118.708333,232.585073 113.87674,237.416667 107.916667,237.416667 L32.375,237.416667 C26.4149271,237.416667 21.5833333,232.585073 21.5833333,226.625 L21.5833333,151.083333 C21.5833333,145.12326 26.4149271,140.291667 32.375,140.291667 L107.916667,140.291667 Z M215.833333,161.875 L161.875,161.875 L161.875,215.833333 L215.833333,215.833333 L215.833333,161.875 Z M97.125,161.875 L43.1666667,161.875 L43.1666667,215.833333 L97.125,215.833333 L97.125,161.875 Z M107.916667,21.5833333 C113.87674,21.5833333 118.708333,26.4149271 118.708333,32.375 L118.708333,107.916667 C118.708333,113.87674 113.87674,118.708333 107.916667,118.708333 L32.375,118.708333 C26.4149271,118.708333 21.5833333,113.87674 21.5833333,107.916667 L21.5833333,32.375 C21.5833333,26.4149271 26.4149271,21.5833333 32.375,21.5833333 L107.916667,21.5833333 Z M226.625,21.5833333 C232.585073,21.5833333 237.416667,26.4149271 237.416667,32.375 L237.416667,107.916667 C237.416667,113.87674 232.585073,118.708333 226.625,118.708333 L151.083333,118.708333 C145.12326,118.708333 140.291667,113.87674 140.291667,107.916667 L140.291667,32.375 C140.291667,26.4149271 145.12326,21.5833333 151.083333,21.5833333 L226.625,21.5833333 Z M215.833333,43.1666667 L161.875,43.1666667 L161.875,97.125 L215.833333,97.125 L215.833333,43.1666667 Z" id="path-1"></path>
    </defs>
    <g id="é¡µé¢-1" stroke="none" stroke-width="1" fill="none" fill-rule="evenodd">
        <g id="Home-1440-Copy" transform="translate(-720.000000, -3407.000000)">
            <g id="Group-3" transform="translate(1.000000, 2309.000000)">
                <g id="grid" transform="translate(518.000000, 1077.000000)">
                    <g id="grid" transform="translate(180.000000, 0.000000)">
                        <mask id="mask-2" fill="white">
                            <use xlink:href="#path-1"></use>
                        </mask>
                        <use id="Combined-Shape" fill="#F1F1F1" fill-rule="nonzero" xlink:href="#path-1"></use>
                        <g id="Group" mask="url(#mask-2)" fill="#F1F1F1">
                            <g id="ðŸŽ¨Color">
                                <rect id="Rectangle" x="0" y="0" width="259" height="259"></rect>
                            </g>
                        </g>
                    </g>
                </g>
            </g>
        </g>
    </g>
</svg>