<?xml version="1.0" encoding="UTF-8"?>
<svg width="72px" height="80px" viewBox="0 0 72 80" version="1.1" xmlns="http://www.w3.org/2000/svg" xmlns:xlink="http://www.w3.org/1999/xlink">
    <title>power</title>
    <defs>
        <path d="M63.2745311,21.2591204 C64.6741383,19.8599702 66.9429794,19.8603406 68.3421296,21.2599478 C82.3325549,35.2549423 82.3300856,57.9412269 68.336614,71.9331754 C54.3431424,85.9251239 31.6568576,85.9251239 17.663386,71.9331754 C3.66991445,57.9412269 3.6674451,35.2549423 17.6578704,21.2599478 C19.0570206,19.8603406 21.3258617,19.8599702 22.7254689,21.2591204 C24.1250761,22.6582706 24.1254465,24.9271117 22.7262963,26.3267189 C11.5339561,37.5227145 11.5359316,55.6717422 22.7307088,66.865301 C33.9254861,78.0588598 52.0745139,78.0588598 63.2692912,66.865301 C74.4640684,55.6717422 74.4660439,37.5227145 63.2737037,26.3267189 C61.8745535,24.9271117 61.8749239,22.6582706 63.2745311,21.2591204 Z M43.0179167,3.58333333 C44.996937,3.58333333 46.60125,5.18764631 46.60125,7.16666667 L46.60125,7.16666667 L46.60125,43 C46.60125,44.9790204 44.996937,46.5833333 43.0179167,46.5833333 C41.0388963,46.5833333 39.4345833,44.9790204 39.4345833,43 L39.4345833,43 L39.4345833,7.16666667 C39.4345833,5.18764631 41.0388963,3.58333333 43.0179167,3.58333333 Z" id="path-1"></path>
    </defs>
    <g id="é¡µé¢-1" stroke="none" stroke-width="1" fill="none" fill-rule="evenodd">
        <g id="User-login-interface" transform="translate(-780.000000, -588.000000)">
            <g id="Group-3" transform="translate(0.000000, 85.000000)">
                <g id="Group" transform="translate(747.000000, 468.000000)">
                    <g transform="translate(26.000000, 32.000000)" id="power">
                        <mask id="mask-2" fill="white">
                            <use xlink:href="#path-1"></use>
                        </mask>
                        <use id="Combined-Shape" fill="#F1F1F1" fill-rule="nonzero" xlink:href="#path-1"></use>
                        <g id="Group" mask="url(#mask-2)" fill="#F1F1F1">
                            <g id="ðŸŽ¨Color">
                                <rect id="Rectangle" x="0" y="0" width="86" height="86"></rect>
                            </g>
                        </g>
                    </g>
                </g>
            </g>
        </g>
    </g>
</svg>